<svg xmlns="http://www.w3.org/2000/svg" xmlns:xlink="http://www.w3.org/1999/xlink" viewBox="0 0 64 64"><rect width="64" height="64" rx="14.08" fill="#0b0908"/><rect x="1.92" y="1.92" width="60.16" height="60.16" rx="12.8" fill="none" stroke="#8a7036" stroke-width="1"/><svg x="4.48" y="4.48" xmlns="http://www.w3.org/2000/svg" viewBox="0 0 64 64" width="55.04" height="55.04" aria-hidden="true"><defs><linearGradient id="gbm-page" x1="0" y1="0" x2="0" y2="1"><stop offset="0" stop-color="#f2dc98"></stop><stop offset="1" stop-color="#c9a44c"></stop></linearGradient></defs><path d="M5 15 C15 10 25 11 31 16 V52 C25 47 15 46 5 51 Z" fill="url(#gbm-page)" stroke="#8a7036" stroke-width="1.5" stroke-linejoin="round"></path><path d="M59 15 C49 10 39 11 33 16 V52 C39 47 49 46 59 51 Z" fill="url(#gbm-page)" stroke="#8a7036" stroke-width="1.5" stroke-linejoin="round"></path><g stroke="#2b1d12" stroke-opacity="0.45" stroke-width="1.6" stroke-linecap="round" fill="none"><path d="M11 23 C16 21 21 21 26 23"></path><path d="M11 30 C16 28 21 28 26 30"></path><path d="M11 37 C16 35 21 35 26 37"></path><path d="M38 30 C43 28 48 28 53 30"></path><path d="M38 37 C43 35 48 35 53 37"></path></g><path d="M42 11 V27 L45.5 23.5 L49 27 V11.5 C46.5 10.8 44.2 10.7 42 11 Z" fill="#a8182f" stroke="#4a0913" stroke-width="1" stroke-linejoin="round"></path></svg></svg>