<svg xmlns="http://www.w3.org/2000/svg" xmlns:xlink="http://www.w3.org/1999/xlink" viewBox="0 0 120 120"><svg x="10" y="0" xmlns="http://www.w3.org/2000/svg" viewBox="0 0 100 120" width="100" height="120"><defs><linearGradient id="crest-gold" x1="0" y1="0" x2="0.45" y2="1"><stop offset="0" stop-color="#fff1b8"></stop><stop offset="0.35" stop-color="#ecc863"></stop><stop offset="0.72" stop-color="#c09432"></stop><stop offset="1" stop-color="#8a6619"></stop></linearGradient><linearGradient id="crest-white" x1="0" y1="0" x2="0.5" y2="1"><stop offset="0" stop-color="#ffffff"></stop><stop offset="0.55" stop-color="#f3f5f8"></stop><stop offset="1" stop-color="#d3d9e2"></stop></linearGradient><radialGradient id="crest-field" cx="0.4" cy="0.3" r="0.85"><stop offset="0" stop-color="#c42a44"></stop><stop offset="0.5" stop-color="#931527"></stop><stop offset="1" stop-color="#4f0a15"></stop></radialGradient><linearGradient id="crest-fold" x1="0" y1="0" x2="1" y2="0"><stop offset="0" stop-color="#000" stop-opacity="0.28"></stop><stop offset="0.18" stop-color="#000" stop-opacity="0"></stop><stop offset="0.5" stop-color="#fff" stop-opacity="0.06"></stop><stop offset="0.82" stop-color="#000" stop-opacity="0"></stop><stop offset="1" stop-color="#000" stop-opacity="0.32"></stop></linearGradient></defs><g data-detail="full"><path d="M8 6.2 H92 A2.8 2.8 0 0 1 92 11.8 H8 A2.8 2.8 0 0 1 8 6.2 Z" fill="url(#crest-gold)" stroke="#1a0b0d" stroke-width="1.1"></path><g><circle cx="4.5" cy="9" r="4.2" fill="url(#crest-gold)" stroke="#1a0b0d" stroke-width="1.1"></circle><circle cx="3.3" cy="7.8" r="1.2" fill="#fff" opacity="0.55"></circle></g><g><circle cx="95.5" cy="9" r="4.2" fill="url(#crest-gold)" stroke="#1a0b0d" stroke-width="1.1"></circle><circle cx="94.3" cy="7.8" r="1.2" fill="#fff" opacity="0.55"></circle></g><rect x="22" y="4.5" width="8" height="13" rx="1.5" fill="#7a1020" stroke="#1a0b0d" stroke-width="1"></rect><rect x="46" y="4.5" width="8" height="13" rx="1.5" fill="#7a1020" stroke="#1a0b0d" stroke-width="1"></rect><rect x="70" y="4.5" width="8" height="13" rx="1.5" fill="#7a1020" stroke="#1a0b0d" stroke-width="1"></rect><path d="M15 15H85V116L50 96L15 116Z" fill="url(#crest-gold)" stroke="#1a0b0d" stroke-width="1.6" stroke-linejoin="miter"></path><path d="M20.00 20.00H80.00V107.38L50.00 90.24L20.00 107.38Z" fill="url(#crest-field)" stroke="#1a0b0d" stroke-width="1"></path><path d="M20.00 20.00H80.00V107.38L50.00 90.24L20.00 107.38Z" fill="url(#crest-fold)"></path><path d="M23.00 23.00H77.00V102.21L50.00 86.79L23.00 102.21Z" fill="none" stroke="#e6c46a" stroke-width="0.8" opacity="0.75"></path><path d="M20 20H80V27C60 23 40 23 20 27Z" fill="#fff" opacity="0.08"></path><path d="M45.40 50.40C45.17 39.50 40.80 32.50 38.50 30.00L61.50 30.00C59.20 32.50 54.83 39.50 54.60 50.40L54.60 50.40C65.50 50.17 72.50 45.80 75.00 43.50L75.00 66.50C72.50 64.20 65.50 59.83 54.60 59.60L54.60 59.60C54.83 70.50 59.20 77.50 61.50 80.00L38.50 80.00C40.80 77.50 45.17 70.50 45.40 59.60L45.40 59.60C34.50 59.83 27.50 64.20 25.00 66.50L25.00 43.50C27.50 45.80 34.50 50.17 45.40 50.40Z" fill="url(#crest-white)" stroke="#1a0b0d" stroke-width="1.4" stroke-linejoin="round"></path><path d="M50.00 55.00L50.00 30.00L61.50 30.00C59.20 32.50 54.83 39.50 54.60 50.40ZM50.00 55.00L75.00 55.00L75.00 66.50C72.50 64.20 65.50 59.83 54.60 59.60ZM50.00 55.00L50.00 80.00L38.50 80.00C40.80 77.50 45.17 70.50 45.40 59.60ZM50.00 55.00L25.00 55.00L25.00 43.50C27.50 45.80 34.50 50.17 45.40 50.40Z" fill="#5b6b82" opacity="0.2"></path></g></svg></svg>